<svg width="20" height="20" viewBox="0 0 20 20" fill="none" xmlns="http://www.w3.org/2000/svg">
<path opacity="0.4" d="M12.9167 10.9583H11.1083C9.62499 10.9583 8.41666 9.75831 8.41666 8.26665V6.45831C8.41666 6.11665 8.14166 5.83331 7.79166 5.83331H5.14999C3.22499 5.83331 1.66666 7.08331 1.66666 9.31665V14.85C1.66666 17.0833 3.22499 18.3333 5.14999 18.3333H10.0583C11.9833 18.3333 13.5417 17.0833 13.5417 14.85V11.5833C13.5417 11.2333 13.2583 10.9583 12.9167 10.9583Z" fill="#292D32"/>
<path d="M14.85 1.66666H13.2083H12.3H9.94168C8.05834 1.66666 6.53334 2.86666 6.46667 5.00832C6.51667 5.00832 6.55834 4.99999 6.60834 4.99999H8.96667H9.87501H11.5167C13.4417 4.99999 15 6.24999 15 8.48332V10.125V12.3833V14.025C15 14.075 14.9917 14.1167 14.9917 14.1583C16.85 14.1 18.3333 12.8667 18.3333 10.6917V9.04999V6.79166V5.14999C18.3333 2.91666 16.775 1.66666 14.85 1.66666Z" fill="#292D32"/>
<path d="M9.98336 5.95837C9.72502 5.70004 9.28336 5.87504 9.28336 6.23337V8.4167C9.28336 9.33337 10.0584 10.0834 11.0084 10.0834C11.6 10.0917 12.425 10.0917 13.1334 10.0917C13.4917 10.0917 13.675 9.67504 13.425 9.42504C12.5167 8.5167 10.9 6.8917 9.98336 5.95837Z" fill="#292D32"/>
</svg>
